<?xml version="1.0" encoding="UTF-8"?>
<!DOCTYPE svg PUBLIC "-//W3C//DTD SVG 1.1//EN" "http://www.w3.org/Graphics/SVG/1.1/DTD/svg11.dtd">
<!-- Creator: CorelDRAW -->
<svg xmlns="http://www.w3.org/2000/svg" xml:space="preserve" width="111.033mm" height="59.7255mm" version="1.1" style="shape-rendering:geometricPrecision; text-rendering:geometricPrecision; image-rendering:optimizeQuality; fill-rule:evenodd; clip-rule:evenodd"
viewBox="0 0 11103.3 5972.55"
 xmlns:xlink="http://www.w3.org/1999/xlink"
 xmlns:xodm="http://www.corel.com/coreldraw/odm/2003">
 <defs>
  <style type="text/css">
   <![CDATA[
    .str0 {stroke:#373435;stroke-width:20;stroke-miterlimit:22.9256}
    .fil0 {fill:#004192}
    .fil1 {fill:#FEFEFE;fill-rule:nonzero}
    .fil2 {fill:#F96A53;fill-rule:nonzero}
   ]]>
  </style>
 </defs>
 <g id="Capa_x0020_1">
  <metadata id="CorelCorpID_0Corel-Layer"/>
  <rect class="fil0 str0" x="10" y="10" width="11083.3" height="5952.55" rx="1175.83" ry="1175.83"/>
  <g id="_2556613066592">
   <path class="fil1" d="M4226.27 2923.97c207.44,69.13 325.18,188.75 340.12,396.18 16.83,229.87 -82.23,401.83 -267.22,528.91 -106.55,74.74 -228.02,119.59 -355.1,142.02 -241.08,44.85 -484.04,46.73 -725.12,7.47 -242.95,-39.24 -349.48,-186.88 -297.15,-429.82 108.4,-500.86 224.27,-1001.71 338.27,-1500.72 9.34,-39.23 20.55,-69.13 71.01,-72.86 272.86,-24.32 543.84,-65.43 818.57,-18.71 100.91,16.83 198.09,41.12 287.81,85.96 310.23,153.25 342,523.3 67.26,730.73 -78.48,57.94 -166.32,95.33 -278.45,130.84zm-713.91 190.6c-35.51,162.62 -69.15,312.1 -102.78,459.74 -13.09,56.07 -5.61,100.94 61.67,104.67 156.98,7.46 313.97,0 454.13,-82.23 106.53,-61.68 151.38,-158.86 136.43,-282.21 -14.95,-117.74 -99.05,-164.46 -201.84,-196.21 -114,-33.66 -224.26,22.41 -347.61,-3.76zm345.74 -816.69c-48.59,31.78 -140.16,-44.84 -170.06,56.07 -31.78,112.13 -54.2,228.02 -80.37,343.88 -9.34,39.23 3.74,74.74 46.73,76.62 168.2,9.34 336.39,11.22 472.81,-108.4 132.69,-115.86 91.57,-295.27 -76.62,-349.46 -59.8,-16.83 -121.47,-16.83 -192.49,-18.71z"/>
   <path class="fil1" d="M8283.58 2325.93c-95.33,-261.65 -336.39,-323.32 -583.09,-347.61 -228.02,-22.44 -457.89,-11.22 -685.88,14.95 -78.5,9.34 -117.74,39.24 -136.42,121.47 -134.57,612.98 -274.72,1225.97 -411.16,1838.96 -5.61,22.44 -16.8,46.72 13.1,74.77 54.18,0 117.74,0 179.41,0 227.99,0 295.27,-54.21 345.73,-274.74 29.9,-130.81 59.8,-263.5 87.84,-390.58 46.73,-16.83 84.09,-3.76 121.47,-1.88 328.93,11.22 641.01,-42.97 882.1,-289.67 205.58,-209.31 291.54,-463.47 186.9,-745.67zm-411.16 327.05c-44.85,213.04 -228,345.73 -480.3,347.61 -164.47,0 -179.42,-18.71 -143.91,-185.02 29.93,-136.42 61.68,-270.99 85.99,-407.41 11.19,-67.28 44.85,-93.45 110.25,-93.45 69.14,-1.88 138.3,-5.61 207.44,7.46 179.41,33.66 257.91,151.4 220.53,330.81z"/>
   <path class="fil1" d="M6439.01 2013.83c-431.72,-156.98 -846.61,-128.96 -1203.56,179.41 -342,295.28 -450.4,687.73 -407.41,1128.79 24.29,252.28 130.81,463.47 356.95,592.43 287.81,164.47 596.19,170.07 906.41,78.48 69.14,-20.54 121.47,-69.14 140.15,-142.03 28.05,-110.25 52.33,-220.53 80.38,-345.73 -97.18,52.33 -175.68,100.91 -265.38,128.95 -282.2,87.85 -564.41,-20.55 -663.47,-256.03 -136.42,-325.2 57.95,-837.25 381.27,-986.77 265.38,-121.47 521.41,-67.28 777.45,74.75 14.95,-56.07 29.9,-106.52 42.97,-156.98 37.38,-155.12 5.61,-239.21 -145.76,-295.27z"/>
   <path class="fil2" d="M2103.24 2167.07c254.16,128.96 457.87,313.96 607.38,553.19 91.58,147.64 80.36,310.23 -22.43,452.26 -211.18,295.27 -491.51,512.07 -816.69,661.59 -218.66,100.91 -459.74,-16.83 -553.18,-254.19 130.82,-69.13 261.64,-140.15 381.25,-227.99 179.41,-130.81 334.52,-282.2 411.14,-497.13 104.66,-229.87 114.01,-459.74 -7.47,-687.73z"/>
   <path class="fil2" d="M9111.49 2167.07c254.16,127.08 457.86,315.84 609.23,553.19 91.59,143.88 84.11,302.74 -14.95,442.92 -213.05,302.76 -498.98,523.26 -831.64,674.66 -216.77,97.18 -452.25,-22.44 -543.83,-254.16 123.33,-67.28 248.55,-134.57 362.56,-218.68 185,-134.54 349.46,-287.79 427.97,-510.2 106.52,-231.72 114.01,-461.59 -9.34,-687.73z"/>
   <path class="fil1" d="M2103.24 2167.07c121.48,227.99 110.26,456.01 5.61,685.88 -158.86,-171.95 -356.96,-289.69 -566.27,-383.11 110.27,-297.16 360.69,-427.99 560.66,-302.77z"/>
   <path class="fil1" d="M9111.49 2167.07c123.35,227.99 115.86,456.01 7.46,687.73 -156.98,-171.92 -353.22,-287.78 -573.72,-386.84 72.86,-164.47 177.53,-284.06 342,-345.73 84.08,-33.66 156.97,-9.37 224.26,44.84z"/>
  </g>
 </g>
</svg>
