<?xml version="1.0" encoding="UTF-8"?>
<!DOCTYPE svg PUBLIC "-//W3C//DTD SVG 1.1//EN" "http://www.w3.org/Graphics/SVG/1.1/DTD/svg11.dtd">
<!-- Creator: CorelDRAW -->
<svg xmlns="http://www.w3.org/2000/svg" xml:space="preserve" width="66.5082mm" height="73.5126mm" version="1.1" style="shape-rendering:geometricPrecision; text-rendering:geometricPrecision; image-rendering:optimizeQuality; fill-rule:evenodd; clip-rule:evenodd"
viewBox="0 0 2309.11 2552.3"
 xmlns:xlink="http://www.w3.org/1999/xlink"
 xmlns:xodm="http://www.corel.com/coreldraw/odm/2003">
 <defs>
  <style type="text/css">
   <![CDATA[
    .str0 {stroke:#373435;stroke-width:6.94;stroke-miterlimit:22.9256}
    .fil1 {fill:#FEFEFE}
    .fil2 {fill:#00CFB6}
    .fil0 {fill:#742385}
   ]]>
  </style>
 </defs>
 <g id="Capa_x0020_1">
  <metadata id="CorelCorpID_0Corel-Layer"/>
  <rect class="fil0 str0" x="3.47" y="3.47" width="2302.17" height="2545.36" rx="204.57" ry="204.57"/>
  <g id="_2553241110368">
   <path class="fil1" d="M552.26 2030.41c-17.95,85.23 -179.32,385.47 -246.19,319.18 -47.56,-47.15 45.87,-165.45 73.02,-193.98 46.42,-48.76 92.19,-97.33 173.16,-125.2zm873.06 -303.14l-32.85 0.28 3.23 -39.66 14.46 -93.23c260.19,208.62 425.52,-399.66 278.55,-539.27 -104.46,-21.46 -136.72,19.23 -178.29,76.14 -0.08,-64.8 -63.21,-81.92 -90.69,-43.26 -11.41,16.05 -31.03,130.33 -36.79,159.33 -32.41,163.23 -25.04,267.4 -104.94,277.39 -22.08,-75.25 26.3,-227.79 48.26,-321.05 11.7,-49.7 13.27,-51.74 3.26,-84.54l-10.84 -17.81c-43.94,-37.76 -69.42,2.75 -94.96,26.44 -166.71,-91.08 -273.96,137.53 -307.95,278.11 -20.48,84.7 -24.06,217.2 33.41,263.98 97.2,79.1 173.83,-30.78 201.05,-62.13 64.3,77.67 53.4,59.92 153.75,33.7l-19.79 106.06 -528.21 85.61c18.02,-146.8 198.9,-607.09 178.92,-699.13 -126.94,-43.23 -154.87,125.28 -189.19,224.21 -25.79,74.34 -90.58,262.08 -171.19,221.48 -55.14,-87.04 82.25,-247.7 40.71,-361.39l-77.41 -5.43 -104.05 383.11c-18.7,206.41 157.18,148.15 235.06,60.08 -6.74,45.91 -26.1,88.42 -40.83,135.7 -53.51,171.78 -66.62,25.57 -305.57,245.69 -42.54,39.19 -116.44,146.94 -136.72,230.89 -65.17,269.9 294.51,358.9 488.11,-198.12 22.47,-64.66 10.35,-82.29 84.34,-99.88 102.72,-24.43 379.56,-82.11 460.18,-81.47l34.62 -3.11 2.97 43.84c0.23,-1.53 2.72,5.67 4.01,8.54 50.6,98.6 89.62,-32.43 110.77,-73.73 99.34,-21.49 220.78,-32.54 324.46,-45.36 69.47,-8.59 275.22,-3.1 298.54,-60.55 62.54,-153.99 -405.89,-35.38 -568.37,-31.45zm23.27 -201.83c-15.85,-78.08 83.52,-421.54 165.05,-348.27 47.01,42.25 2.53,385.25 -165.05,348.27zm-397.73 26.99c-90.14,-93.08 21.78,-379.8 154.67,-334.88 10.2,57.57 -25.46,146.81 -44.2,201.23 -25.57,74.24 -35.41,131.8 -110.47,133.64z"/>
   <path class="fil2" d="M1215.54 693.33c-4.4,-48.54 95.43,-217.43 133.39,-287.49 25.74,-47.52 23.43,-66.34 67.59,-71.49 19.27,27.81 -42.95,140.12 -71.42,190.25 -59.65,105.03 -65.46,175.87 -129.56,168.73zm-261.29 -137.5c57.37,22.12 8.7,46.62 58.9,83.64 28.99,21.38 91.46,24.67 110.1,-8.24 41.19,-72.76 -106.88,-102.85 -143,-131.49 -127.15,-100.8 71.86,-224.79 171.46,-134.27 38.35,34.85 31.68,73.32 10.77,103.3 -75.79,-21.91 -5.93,-44.78 -73.27,-78.82 -40.6,-20.52 -88.7,-1.36 -95.13,23.52 -6.54,70.14 68.01,68.54 129.75,101.7 48.59,26.1 95.57,85.32 44.5,151.16 -86.18,111.13 -316.73,-26.11 -214.06,-110.5zm-221.12 -140.77c-20.37,103.74 0.29,206.4 44.72,287.45 23.4,42.69 57.3,67.46 63.68,107.48 6.06,38 -12.75,119.43 -11.07,174.45 96.27,-12.99 103.13,-83.54 184.1,-81.45 91.75,2.36 118.91,36 239.43,7.92 266.15,-62.01 421.85,-365 277.6,-631.31 -76.24,-140.76 -170.02,-182.69 -273.21,-205.9 -197.12,-17.85 -470.43,62.26 -525.24,341.37z"/>
   <path class="fil1" d="M1901.33 1248.57c19.9,-63.99 56.13,-164.89 118.22,-149.99 47.07,33.45 -31.17,142.09 -118.22,149.99zm215.42 224.93l-17.92 -92.65c-67.23,14.97 -132.81,133.61 -205.58,103.53 -39.43,-16.31 -42.21,-80.49 -18.86,-112.24 21.22,-28.86 83.55,-32.64 118.25,-52.87 218.06,-127.13 159.85,-427.88 -43.45,-312.77 -207.63,117.57 -318.33,685.98 -23.75,601.08 111.5,-32.14 119.75,-81.08 191.3,-134.07z"/>
  </g>
 </g>
</svg>
